# xmcd CD database file
#
# Track frame offsets:
#	150
#	13520
#	26800
#	37797
#	49307
#	63005
#	74950
#	90507
#	104620
#	117462
#	128222
#	138912
#	151977
#	167422
#
# Disc length: 2437 seconds
#
# Revision: 0
# Processed by: cddbd v1.5.1PL0 Copyright (c) Steve Scherf et al.
# Submitted via: CDex 1.51
#
DISCID=bb09830e
DTITLE=Stampeders - Against The Grain
DYEAR=1971
DGENRE=Country
TTITLE0=Carry Me
TTITLE1=Train To Nowhere
TTITLE2=Gator Road
TTITLE3=Only A Friend
TTITLE4=Oklahoma Country
TTITLE5=You Got To Go
TTITLE6=Sweet City Woman
TTITLE7=Sunday Prayin'
TTITLE8=Tuscaloosa Women
TTITLE9=With You I Got Wheels
TTITLE10=I Didn't Love You Anyhow
TTITLE11=Man From P.E.I.
TTITLE12=Oui Tu Es Mon Ami (Sweet City Woman) (Bonustrack)
TTITLE13=Sweet City Woman (instrumental) (Bonustrack)
EXTD=YEAR: 1971
EXTT0=
EXTT1=
EXTT2=
EXTT3=
EXTT4=
EXTT5=
EXTT6=
EXTT7=
EXTT8=
EXTT9=
EXTT10=
EXTT11=
EXTT12=
EXTT13=
PLAYORDER=
